<?xml version="1.0" ?><!DOCTYPE svg  PUBLIC '-//W3C//DTD SVG 1.1//EN'  'http://www.w3.org/Graphics/SVG/1.1/DTD/svg11.dtd'><svg enable-background="new 0 0 100 100" height="100px" id="Layer_1" version="1.1" viewBox="0 0 100 100" width="100px" xml:space="preserve" xmlns="http://www.w3.org/2000/svg" xmlns:xlink="http://www.w3.org/1999/xlink"><g><path d="M50,5C30.67,5,15,20.67,15,40c0,0.289,0.015,0.574,0.022,0.861c0.392-1.575,13.013-2.496,27.438-2.739   c0.841-3.386,3.893-5.899,7.54-5.899c3.643,0,6.692,2.508,7.537,5.889c14.427,0.224,27.05,1.133,27.441,2.748   C84.985,40.573,85,40.288,85,40C85,20.67,69.33,5,50,5z"/><path d="M50,47.778c-3.603,0-6.625-2.453-7.509-5.778c-13.41,0.208-25.268,1.006-27.205,2.414   c0.888,7.056,3.88,13.455,8.323,18.556c5.327,6.116,10.594,12.285,15.661,18.618L50,95l10.729-13.411   c5.072-6.34,10.348-12.511,15.677-18.637c4.433-5.096,7.418-11.485,8.307-18.53c-1.94-1.377-13.797-2.187-27.206-2.412   C56.619,45.33,53.599,47.778,50,47.778z M60.028,45.949c10.777,0.243,17.05,0.796,20.23,1.274   C76.975,61.052,64.508,71.111,50,71.111c-14.517,0-26.989-10.072-30.264-23.912c3.166-0.48,9.435-1.033,20.227-1.263   c2.06,3.482,5.845,5.731,10.037,5.731C54.184,51.667,57.966,49.423,60.028,45.949z"/></g></svg>